<?xml version="1.0" standalone="no"?><!DOCTYPE svg PUBLIC "-//W3C//DTD SVG 1.1//EN" "http://www.w3.org/Graphics/SVG/1.1/DTD/svg11.dtd"><svg t="1626158335890" class="icon" viewBox="0 0 1024 1024" version="1.1" xmlns="http://www.w3.org/2000/svg" p-id="3699" xmlns:xlink="http://www.w3.org/1999/xlink" width="32" height="32"><defs><style type="text/css"></style></defs><path d="M795.52 832H211.2a26.666667 26.666667 0 1 1 0-53.333333h519.466667L192 247.466667a26.666667 26.666667 0 0 1 37.546667-37.973334L814.293333 787.2a27.093333 27.093333 0 0 1 5.973334 29.226667 26.453333 26.453333 0 0 1-24.746667 15.573333z" p-id="3700"></path><path d="M795.52 832A26.666667 26.666667 0 0 1 768 806.186667V228.48a26.666667 26.666667 0 0 1 26.666667-26.666667 26.666667 26.666667 0 0 1 26.666666 26.666667v577.706667A26.666667 26.666667 0 0 1 795.52 832z" p-id="3701"></path></svg>